<?xml version="1.0" encoding="utf-8"?>
<svg version="1.1" x="0px" y="0px" viewBox="0 0 100 125" style="enable-background:new 0 0 100 100;" xmlns="http://www.w3.org/2000/svg">
  <path d="M89,51c-1.5283203,0-2.2587891-0.7490234-3.184082-1.6982422C84.8164062,48.2763672,83.5717773,47,81.2006836,47  c-2.3706055,0-3.6142578,1.2763672-4.6137695,2.3027344C75.6625977,50.2509766,74.9326172,51,73.40625,51  c-1.527832,0-2.2583008-0.7490234-3.1826172-1.6982422C69.2236328,48.2763672,67.9794922,47,65.6083984,47  s-3.6147461,1.2763672-4.6147461,2.3017578C60.0693359,50.2509766,59.3388672,51,57.8110352,51  s-2.2583008-0.7490234-3.1826172-1.6982422C53.628418,48.2763672,52.3842773,47,50.0131836,47  c-2.371582,0-3.6162109,1.2763672-4.6157227,2.3017578C44.472168,50.2509766,43.7416992,51,42.2133789,51  c-1.5292969,0-2.2602539-0.7490234-3.1855469-1.6982422C38.027832,48.2763672,36.7827148,47,34.4106445,47  c-2.371582,0-3.6162109,1.2763672-4.6157227,2.3017578C28.8696289,50.2509766,28.1391602,51,26.6108398,51  c-1.5297852,0-2.2612305-0.7490234-3.1870117-1.6982422C22.4233398,48.2763672,21.1782227,47,18.8051758,47  c-2.3725586,0-3.6176758,1.2763672-4.6181641,2.3017578C13.2612305,50.25,12.5297852,51,11,51c-0.5522461,0-1,0.4472656-1,1  s0.4477539,1,1,1c2.3730469,0,3.6181641-1.2763672,4.6186523-2.3017578C16.5444336,49.7490234,17.2753906,49,18.8051758,49  s2.2612305,0.7490234,3.1870117,1.6982422C22.9926758,51.7236328,24.237793,53,26.6108398,53  c2.371582,0,3.6162109-1.2763672,4.6157227-2.3017578C32.1518555,49.7490234,32.8823242,49,34.4106445,49  c1.5292969,0,2.2602539,0.7490234,3.1855469,1.6982422C38.5961914,51.7236328,39.8413086,53,42.2133789,53  c2.371582,0,3.6162109-1.2763672,4.6157227-2.3017578C47.7543945,49.7490234,48.4848633,49,50.0131836,49  c1.527832,0,2.2583008,0.7490234,3.1826172,1.6982422C54.1958008,51.7236328,55.4399414,53,57.8110352,53  s3.6152344-1.2763672,4.6152344-2.3017578C63.3505859,49.7490234,64.0810547,49,65.6083984,49  c1.527832,0,2.2583008,0.7490234,3.1826172,1.6982422C69.7910156,51.7236328,71.0351562,53,73.40625,53  c2.3701172,0,3.6137695-1.2763672,4.6132812-2.3017578C78.9438477,49.7490234,79.6738281,49,81.2006836,49  c1.527832,0,2.2583008,0.7490234,3.1835938,1.6982422C85.3837891,51.7236328,86.628418,53,89,53c0.5522461,0,1-0.4472656,1-1  S89.5522461,51,89,51z" style="fill: rgb(255, 255, 255);"/>
</svg>